<?xml version="1.0" standalone="no"?><!DOCTYPE svg PUBLIC "-//W3C//DTD SVG 1.1//EN" "http://www.w3.org/Graphics/SVG/1.1/DTD/svg11.dtd"><svg t="1594356436725" class="icon" viewBox="0 0 1024 1024" version="1.1" xmlns="http://www.w3.org/2000/svg" p-id="2901" xmlns:xlink="http://www.w3.org/1999/xlink" width="16" height="16"><defs><style type="text/css"></style></defs><path d="M992.535273 391.074909c-10.612364-33.419636-27.368727-83.223273-46.545455-130.327273-24.389818-59.857455-45.614545-98.304-65.070545-117.76s-57.902545-40.680727-117.76-65.070545c-47.104-19.176727-96.907636-35.933091-130.327273-46.545455-26.344727-8.378182-54.923636-1.396364-74.472727 18.152728L49.524364 558.545455c-28.765091 28.765091-28.765091 75.496727 0 104.261818L361.192727 974.475636c28.765091 28.765091 75.496727 28.765091 104.261818 0L974.475636 465.454545c19.549091-19.549091 26.437818-48.034909 18.059637-74.379636z m-553.425455 557.149091c-14.242909 14.242909-37.329455 14.242909-51.572363 0L75.776 636.462545c-14.242909-14.242909-14.242909-37.329455 0-51.572363L584.797091 75.869091c9.681455-9.681455 23.831273-13.125818 36.864-8.936727 119.901091 38.074182 207.034182 76.427636 233.006545 102.4 25.972364 25.972364 64.232727 113.105455 102.4 233.006545 4.189091 13.032727 0.744727 27.182545-8.936727 36.864l-509.021091 509.021091z" fill="#353535" p-id="2902"></path><path d="M801.140364 222.859636c-36.305455-36.305455-95.325091-36.305455-131.630546 0s-36.305455 95.325091 0 131.630546 95.325091 36.305455 131.630546 0 36.305455-95.325091 0-131.630546zM695.854545 328.145455c-21.783273-21.783273-21.783273-57.250909 0-79.034182 21.783273-21.783273 57.250909-21.783273 79.034182 0 21.783273 21.783273 21.783273 57.250909 0 79.034182-21.783273 21.783273-57.250909 21.783273-79.034182 0z" fill="#FEC500" p-id="2903"></path><path d="M239.429818 671.371636l-48.779636-48.779636c-3.630545-3.630545-3.630545-9.495273 0-13.125818l92.811636-92.811637c7.261091-7.261091 7.261091-19.083636 0-26.344727-7.261091-7.261091-19.083636-7.261091-26.344727 0l-92.811636 92.811637c-18.152727 18.152727-18.152727 47.662545 0 65.815272l48.779636 48.779637c7.261091 7.261091 19.083636 7.261091 26.344727 0 7.261091-7.261091 7.261091-18.990545 0-26.344728z" fill="#353535" p-id="2904"></path></svg>